HIERARCHY
ROOT Hips
{
  OFFSET 155.048 98.1286 3.93448
  CHANNELS 6 Xposition Yposition Zposition Zrotation Xrotation Yrotation
  JOINT RightUpLeg
  {
    OFFSET -8.9458 -8.66707 0.101652
    CHANNELS 3 Zrotation Xrotation Yrotation
    JOINT RightLeg
    {
      OFFSET 0 -44.4227 1.3727
      CHANNELS 3 Zrotation Xrotation Yrotation
      JOINT RightFoot
      {
        OFFSET 0.253549 -42.0924 -1.46059
        CHANNELS 3 Zrotation Xrotation Yrotation
        JOINT RightToes
        {
          OFFSET 0.04 -4.41509 8.4991
          CHANNELS 3 Zrotation Xrotation Yrotation
          End Site
          {
            OFFSET -0.08 -0.137448 9.77979
          }
        }
      }
    }
  }
  JOINT Spine
  {
    OFFSET 0 11.8905 0
    CHANNELS 3 Zrotation Xrotation Yrotation
    JOINT Spine1
    {
      OFFSET 0 25.6574 0.127663
      CHANNELS 3 Zrotation Xrotation Yrotation
      JOINT Head
      {
        OFFSET 0 8.73416 0.011341
        CHANNELS 3 Zrotation Xrotation Yrotation
        End Site
        {
          OFFSET -0.29 12.7742 2.51395
        }
      }
      JOINT LeftShoulder1
      {
        OFFSET 8.99 -0.362252 -0.22
        CHANNELS 3 Zrotation Xrotation Yrotation
        JOINT LeftArm
        {
          OFFSET 10.2827 -0.00337999 0.322123
          CHANNELS 3 Zrotation Xrotation Yrotation
          JOINT LeftForeArm
          {
            OFFSET 26.2597 0.099144 -1.42434
            CHANNELS 3 Zrotation Xrotation Yrotation
            JOINT LeftHand
            {
              OFFSET 22.0902 0.085362 1.02216
              CHANNELS 3 Zrotation Xrotation Yrotation
              End Site
              {
                OFFSET 13.419 -0.6 1.50291
              }
            }
          }
        }
      }
      JOINT RightShoulder
      {
        OFFSET -8.99 -0.362252 -0.22
        CHANNELS 3 Zrotation Xrotation Yrotation
        JOINT RightArm
        {
          OFFSET -10.2827 -0.00338 0.322123
          CHANNELS 3 Zrotation Xrotation Yrotation
          JOINT RightForeArm
          {
            OFFSET -26.364 0.099144 -1.42434
            CHANNELS 3 Zrotation Xrotation Yrotation
            JOINT RightHand
            {
              OFFSET -22.0324 0.085362 1.02216
              CHANNELS 3 Zrotation Xrotation Yrotation
              End Site
              {
                OFFSET -13.3284 -0.6 1.50291
              }
            }
          }
        }
      }
    }
  }
  JOINT LeftUpLeg
  {
    OFFSET 8.9458 -8.66707 0.101652
    CHANNELS 3 Zrotation Xrotation Yrotation
    JOINT LeftLeg
    {
      OFFSET 0 -44.4227 1.3727
      CHANNELS 3 Zrotation Xrotation Yrotation
      JOINT LeftFoot
      {
        OFFSET -0.253549 -42.0924 -1.46059
        CHANNELS 3 Zrotation Xrotation Yrotation
        JOINT LeftToes
        {
          OFFSET -0.04 -4.41509 8.4991
          CHANNELS 3 Zrotation Xrotation Yrotation
          End Site
          {
            OFFSET 0.08 -0.047448 9.77979
          }
        }
      }
    }
  }
}
MOTION
Frames:	21
Frame Time:	0.0333333
-75.3542 70.6713 -9.06089 50.0031 -11.1615 -77.2864 -7.62822 -16.4344 -14.388 -1.06996 48.3018 -11.1448 14.7351 -26.5628 2.24309 0.0462048 0.000530889 0.662642 4.10138 57.2633 -2.93484 -14.6566 -14.4525 0.782163 -5.15214 -38.632 -13.284 -24.0924 6.58422 -17.9662 -22.9208 -18.772 -102.577 -8.05633 21.6683 -16.4141 19.9773 8.59912 -2.36106 27.8739 8.92331 21.7556 28.4416 -57.3604 84.0477 12.4894 51.4847 -11.6871 -48.7468 5.28209 5.0542 -152.387 -80.115 -120.851 119.317 88.8799 -98.3498 -3.15458 -34.3589 -0.577847 -1.3449e-009 8.75165e-006 -1.48423e-008 
-73.6713 72.0495 -8.96813 48.4987 -12.5295 -77.6034 -8.29854 -16.987 -13.507 -1.258 49.885 -14.052 14.0606 -26.5993 2.12981 0.0462048 0.000530889 0.662642 0.972307 58.2895 0.908485 -14.5755 -16.166 2.91565 -4.71362 -38.5827 -9.5473 -25.1104 6.96039 -18.4843 -12.6866 -15.0548 -97.6334 -4.94126 15.4309 -22.9866 22.5428 7.88974 -5.08571 28.5368 9.03552 21.6097 15.6845 -61.0538 71.1403 13.415 50.6293 -12.0594 -39.9505 6.59452 3.96233 -143.525 -80.9709 -111.489 22.0226 87.3666 -0.614553 -2.70163 -31.8383 -0.416863 -1.3449e-009 8.75165e-006 -1.48423e-008 
-72.0014 73.3175 -8.86321 46.425 -13.1833 -78.034 -8.16356 -17.1091 -12.5745 -1.39822 51.5736 -15.7802 14.0975 -26.3912 2.10978 0.0462048 0.000530889 0.662642 -1.11687 58.2776 2.90489 -14.3955 -16.5047 3.7666 -2.9861 -38.428 -6.71692 -25.1795 6.9549 -18.4187 -15.5438 -11.4625 -95.3198 -1.87774 22.254 -25.1227 30.7533 6.76946 -6.46412 29.119 9.11121 21.4204 8.95871 -62.0146 63.3767 12.9003 48.9836 -11.0336 -27.7908 7.8801 3.13429 -130.893 -82.0953 -98.7419 10.7972 84.6736 10.9702 -1.62553 -29.8291 -0.158691 -1.3449e-009 8.75165e-006 -1.48423e-008 
-70.2451 74.5397 -8.6235 43.8817 -13.0603 -78.9182 -7.457 -17.3494 -11.5789 -1.48482 53.8513 -16.0011 14.1979 -26.1648 2.09819 0.0462048 0.000530889 0.662642 -2.84879 57.0769 4.00196 -12.9789 -15.563 4.01673 -2.02499 -37.9911 -5.86753 -26.5832 7.29851 -18.5528 -16.0933 -10.2434 -90.5643 -1.2943 23.2508 -25.0974 37.7453 6.2329 -5.68236 27.8749 8.71615 21.1693 12.1441 -60.3229 64.2721 11.6811 49.4436 -7.98464 -18.1497 8.62366 3.10521 -113.663 -83.3026 -81.7404 7.359 82.0976 14.7972 0.0574878 -28.5356 0.173559 -1.3449e-009 8.75165e-006 -1.48423e-008 
-68.4408 75.7264 -8.3172 41.3025 -12.5684 -79.9111 -6.91129 -18.0778 -10.8796 -1.55032 56.7845 -15.0942 14.608 -26.1622 2.1679 0.0462048 0.000530889 0.662642 -3.34941 55.7053 3.59944 -11.9711 -15.0497 3.36817 -1.10098 -37.5076 -6.2241 -28.2637 7.6702 -18.5774 -15.7899 -10.0362 -83.9978 -3.42467 19.4424 -23.1096 39.4413 6.38232 -4.71948 26.8161 8.43289 21.0918 19.4504 -56.468 68.2746 12.846 51.5877 -8.54476 -14.3213 8.8454 3.59402 -93.9302 -83.8256 -62.603 5.70449 79.6913 16.7992 1.40509 -26.8472 0.397249 -1.3449e-009 8.75165e-006 -1.48423e-008 
-66.6503 76.8765 -8.03808 38.7651 -12.1652 -81.1047 -6.91307 -19.2337 -10.2046 -1.65933 60.4024 -13.9439 15.3875 -26.3196 2.32257 0.0462048 0.000530889 0.662642 -3.73189 54.4793 2.9645 -11.4763 -15.1706 2.48061 -0.425539 -37.4635 -8.17171 -29.5 7.99432 -18.7263 -16.9085 -10.3486 -76.5946 -6.35272 16.021 -19.9689 36.7568 6.81093 -4.21225 27.7547 8.71889 21.2577 24.7133 -52.3669 69.5776 12.7729 52.5388 -6.78113 -15.0066 8.79983 3.54922 -74.2348 -83.6388 -43.752 4.71953 77.3328 18.3088 2.2066 -24.783 0.480776 -1.3449e-009 8.75165e-006 -1.48423e-008 
-64.8342 78.0142 -7.7798 35.9751 -11.8745 -82.8854 -7.23694 -20.5288 -9.13258 -1.89725 64.7071 -13.2768 15.7274 -26.3091 2.37967 0.0462048 0.000530889 0.662642 -4.67577 53.2167 3.0559 -10.9023 -14.9853 2.10741 -0.930478 -37.7939 -12.1739 -30.3857 8.30863 -19.0407 -21.9608 -12.852 -69.9589 -9.36851 18.594 -15.547 32.4805 7.27346 -3.95358 30.2799 9.40853 21.4476 27.7591 -49.3564 67.9925 9.83519 50.9889 -0.511092 -16.9126 8.69162 3.23488 -53.3134 -82.8878 -23.7483 4.08585 74.9884 19.7005 3.03923 -23.054 0.549349 -1.3449e-009 8.75165e-006 -1.48423e-008 
-62.9387 79.1412 -7.53469 32.8033 -11.4802 -85.1238 -7.56025 -21.675 -7.74144 -2.30756 69.265 -13.1155 15.1383 -25.9271 2.22651 0.0462048 0.000530889 0.662642 -5.73509 51.9571 3.70094 -10.0751 -14.3671 2.31098 -2.50501 -37.8224 -16.9638 -30.9846 8.60633 -19.4673 -27.3704 -16.8037 -63.9412 -12.8 24.8033 -9.79514 28.5581 7.64038 -3.84378 32.956 10.0675 21.4194 29.3322 -46.8691 64.0511 5.9888 48.349 7.06751 -17.5652 8.59221 3.58995 -33.9271 -81.345 -5.32044 3.63443 72.7336 20.7821 3.97249 -21.4755 0.610981 -1.3449e-009 8.75165e-006 -1.48423e-008 
-60.9752 80.2033 -7.36803 29.4592 -10.9452 -87.4274 -7.76996 -22.4387 -6.17058 -2.85527 73.3785 -12.7436 14.3156 -25.3906 2.01864 0.0462048 0.000530889 0.662642 -6.55857 50.6524 4.36198 -9.13133 -13.5332 2.64753 -3.63525 -37.6438 -19.9312 -31.0105 8.69275 -19.6764 -29.0787 -19.0978 -57.1856 -16.3082 29.2482 -4.24443 25.7373 7.87239 -3.86739 34.772 10.4312 21.1883 28.1702 -42.8342 57.127 2.38274 44.1213 13.4375 -16.5461 8.61028 4.0436 -19.8758 -79.1068 7.7163 3.27666 70.5836 21.5078 4.62089 -19.6152 0.601149 -1.3449e-009 8.75165e-006 -1.48423e-008 
-58.9456 81.1663 -7.34671 26.1668 -10.39 -89.7849 -7.86021 -22.6385 -4.25756 -3.43901 76.6041 -11.5233 14.0575 -25.0811 1.93777 0.0462048 0.000530889 0.662642 -7.80793 49.0623 5.28404 -7.76943 -12.5512 3.03977 -3.71403 -37.6509 -20.1696 -30.7534 8.60045 -19.5902 -26.4544 -17.097 -48.6341 -18.1815 28.5864 -1.825 24.1449 8.0161 -3.81495 35.706 10.5221 20.8506 26.8763 -37.726 49.9231 0.134062 39.7045 17.49 -15.135 8.75128 3.84898 -10.0937 -76.4771 16.5319 2.99993 68.4423 22.2657 5.15282 -17.7451 0.557983 -1.3449e-009 8.75165e-006 -1.48423e-008 
-56.8248 82.0963 -7.47485 23.0089 -9.86444 -92.2951 -7.95151 -22.1696 -2.0531 -3.90144 78.687 -9.9169 14.1431 -24.995 1.9407 0.0462048 0.000530889 0.662642 -9.43486 47.1065 6.39972 -6.34394 -11.4529 3.52808 -3.12913 -37.6911 -18.8501 -30.4445 8.42889 -19.3248 -24.3377 -12.772 -39.8071 -18.331 25.2734 -2.43129 23.3188 8.13597 -3.55397 36.3921 10.5635 20.5523 26.3136 -32.9938 43.6124 -0.400344 36.2869 19.2539 -14.109 8.89562 3.31697 -2.82962 -73.5596 22.9842 2.77515 66.1146 23.173 5.93547 -16.0005 0.523581 -1.3449e-009 8.75165e-006 -1.48423e-008 
-54.666 83.0764 -7.69136 20.1047 -9.34786 -94.4815 -8.43352 -20.9138 -0.382936 -3.99755 79.2716 -9.1767 14.0117 -24.8553 1.90237 0.0462048 0.000530889 0.662642 -10.3523 44.8345 6.99042 -5.43323 -10.3166 3.86959 -2.39567 -37.4721 -17.4211 -30.1541 8.23136 -18.9738 -24.6936 -9.00279 -31.6039 -17.7759 21.2189 -4.24353 22.7959 8.22316 -3.31854 37.1893 10.6823 20.3729 26.8511 -30.0473 38.3253 -0.109484 35.3783 19.299 -12.9623 9.01457 3.01339 1.46908 -70.5103 26.5524 2.54003 63.3815 23.8064 6.64638 -13.884 0.437684 -1.3449e-009 8.75165e-006 -1.48423e-008 
-52.5213 84.0457 -7.95532 17.8219 -8.67343 -95.7773 -9.18659 -19.0306 0.221234 -3.6625 78.2104 -9.76444 13.737 -24.7041 1.84049 0.0462048 0.000530889 0.662642 -9.73652 41.7996 6.6559 -5.00116 -8.90939 3.94943 -1.68987 -36.9405 -16.2628 -30.0038 8.02119 -18.5001 -26.2276 -5.77517 -24.2093 -17.1582 15.9989 -6.52017 22.6343 8.24844 -3.25159 37.9956 10.8099 20.2119 28.2526 -29.2741 33.6964 0.176415 36.9716 18.5507 -11.2249 9.15044 2.91401 3.41466 -67.9097 27.5547 2.29711 60.3404 23.9802 7.01255 -11.3104 0.280671 -1.3449e-009 8.75165e-006 -1.48423e-008 
-50.2369 85.0165 -8.38403 15.8186 -7.94195 -96.9246 -9.80725 -16.575 0.793547 -3.1128 75.722 -10.8711 13.5451 -24.8025 1.82231 0.0462048 0.000530889 0.662642 -9.02362 38.1275 6.48063 -4.52211 -7.02599 4.22581 -1.08966 -35.9633 -15.1993 -30.1449 7.81748 -17.8724 -28.5331 -3.87159 -17.9124 -16.6958 11.1608 -8.6413 22.9537 8.22909 -3.22375 38.7755 10.8744 19.9325 29.1774 -29.4387 29.2306 0.431271 38.8247 17.7788 -9.32754 9.29558 2.80028 5.3305 -65.3281 28.7135 2.06779 56.9314 24.004 7.65901 -8.69013 0.104922 -1.3449e-009 8.75165e-006 -1.48423e-008 
-47.7193 86.1086 -8.93857 13.9655 -7.1861 -97.7694 -10.236 -13.801 1.28216 -2.45176 71.6434 -11.6465 13.2252 -25.1381 1.81142 0.0462048 0.000530889 0.662642 -8.04617 34.1485 6.28855 -4.16651 -4.63251 4.5697 -0.663326 -34.3664 -14.309 -30.6074 7.64879 -17.1648 -31.1085 -4.286 -12.8869 -16.2218 8.38762 -10.1997 23.4461 8.21284 -3.11335 39.8021 10.9586 19.5742 28.9596 -29.7942 25.1094 0.872991 39.8705 17.0309 -7.91998 9.40013 2.72533 6.04982 -62.4918 28.5795 1.85806 52.4399 24.2577 8.73318 -5.62204 -0.140025 -1.3449e-009 8.75165e-006 -1.48423e-008 
-44.9367 87.4653 -9.62283 12.111 -6.44661 -98.3269 -10.2908 -10.9472 1.82694 -1.84327 65.562 -12.004 13.0783 -25.4111 1.81902 0.0462048 0.000530889 0.662642 -6.86134 30.2177 6.01746 -4.10443 -1.76366 4.90286 -0.242466 -32.325 -13.6634 -31.3172 7.52578 -16.4627 -32.9504 -5.64845 -9.20218 -15.6224 6.7729 -11.5799 23.6012 8.24057 -2.91385 41.2039 11.1599 19.2796 28.2046 -30.9095 22.0029 1.40722 40.9586 16.1282 -7.24514 9.44648 2.74146 5.40276 -59.0191 26.6057 1.64804 46.24 24.6318 8.55476 -1.79667 -0.435397 -1.3449e-009 8.75165e-006 -1.48423e-008 
-41.8309 88.8797 -10.431 10.2707 -5.7071 -98.7545 -9.89265 -8.13583 2.62533 -1.41575 58.0175 -11.7606 14.6368 -25.998 2.15357 0.0462048 0.000530889 0.662642 -5.56041 26.3384 5.70329 -4.40273 1.58371 5.22982 0.364477 -30.1368 -13.0364 -32.1487 7.42939 -15.7913 -33.7112 -5.70005 -6.62739 -14.9486 4.3892 -13.5133 23.2474 8.31468 -2.6697 42.603 11.392 19.0581 27.7507 -32.6685 20.1811 1.86461 41.9112 15.2472 -7.30354 9.44694 2.66031 4.30657 -55.1327 23.5607 1.49865 39.0612 25.5231 5.75332 0.928851 -0.454366 -1.3449e-009 8.75165e-006 -1.48423e-008 
-38.3529 90.0186 -11.2869 8.58559 -4.84902 -99.2204 -9.17377 -5.64337 3.3487 -1.10688 50.8891 -10.4269 18.321 -27.5853 3.04718 0.0462048 0.000530889 0.662642 -3.93357 22.595 5.32646 -5.2278 5.08412 5.57819 0.971708 -27.8157 -12.324 -32.8952 7.31981 -15.152 -33.9416 -4.32729 -4.70353 -14.2873 1.20091 -16.0598 22.7177 8.39309 -2.45994 43.4533 11.4633 18.79 28.1908 -34.0383 19.4011 2.24989 41.5655 14.6793 -7.85177 9.42246 2.42801 3.62248 -51.5743 20.2422 1.39196 32.4402 27.3559 1.7474 -0.373291 -0.135622 -1.3449e-009 8.75165e-006 -1.48423e-008 
-34.6882 90.905 -12.0702 7.08156 -3.67486 -99.7748 -8.10247 -3.72314 3.12409 -0.875714 45.6098 -8.39542 21.1225 -29.851 4.00624 0.0462048 0.000530889 0.662642 -1.5747 19.2917 4.82148 -6.52257 8.16469 5.93547 1.27613 -25.4144 -11.731 -33.3533 7.15424 -14.5259 -34.3383 -3.68291 -3.20987 -13.6127 -0.822722 -18.3853 22.4903 8.4203 -2.40027 43.5785 11.3134 18.4395 29.6435 -34.5892 19.2767 2.50077 40.002 14.5581 -8.22757 9.4062 2.27965 3.5798 -48.4179 15.1226 0.445875 26.5332 30.4527 -1.57199 -5.49956 0.043781 -1.3449e-009 8.75165e-006 -1.48423e-008 
-31.1071 91.6772 -12.7387 5.52177 -2.15831 -100.386 -6.46841 -2.10689 1.86919 -0.766973 41.803 -7.39703 19.9772 -31.8534 4.14417 0.0462048 0.000530889 0.662642 1.30225 16.665 4.29831 -7.69362 10.638 6.23929 1.34599 -23.4064 -11.3452 -33.5635 6.93704 -13.8939 -35.0566 -4.99777 -2.30276 -12.8032 -0.559719 -19.8282 22.6796 8.38395 -2.52151 43.2252 11.0519 18.0936 31.47 -34.4343 19.4073 2.40364 38.1185 15.0123 -7.9537 9.42276 2.30849 4.42155 -44.7526 7.56154 -1.10044 20.4431 34.0789 -4.84213 -10.2991 -0.0631692 -1.3449e-009 8.75165e-006 -1.48423e-008 
-27.6481 92.2898 -13.3464 3.63495 -0.575753 -100.984 -4.35311 -0.489949 0.777236 -0.785063 38.6437 -8.4518 16.0967 -33.13 3.45902 0.0462048 0.000530889 0.662642 3.74612 14.9568 3.92185 -8.13577 12.6978 6.39301 1.47078 -22.3005 -10.9196 -33.7848 6.73947 -13.3112 -35.8945 -7.40424 -2.06908 -11.8509 1.17555 -20.5492 22.9562 8.32758 -2.71248 42.7999 10.8128 17.8188 32.5707 -33.554 19.4171 1.98256 36.2406 16.018 -7.46975 9.45065 2.38519 5.66155 -40.8122 5.4404 -0.817769 15.0596 32.0661 -8.65675 -11.4856 -0.229945 -1.3449e-009 8.75165e-006 -1.48423e-008 
